<?xml version="1.0" encoding="UTF-8"?>
<svg version="1.1" xmlns="http://www.w3.org/2000/svg" width="256" height="256">
<path d="M0 0 C1.09629414 1.06323871 2.18441656 2.13494163 3.26603699 3.21310425 C3.86319519 3.79697403 4.46035339 4.38084381 5.0756073 4.98240662 C7.047381 6.91548114 9.00741438 8.8599238 10.96598816 10.80636597 C12.33022229 12.15588291 13.69453716 13.50531824 15.05892944 14.85467529 C17.91669483 17.68544629 20.76767102 20.5228757 23.61515808 23.36398315 C27.26659096 27.00453476 30.94276665 30.61896376 34.62559986 34.22770882 C37.45203186 37.00579998 40.26036073 39.80166009 43.06398582 42.60274887 C44.41185925 43.94338406 45.76636246 45.27738749 47.12749672 46.60455704 C49.02903012 48.46221743 50.90369948 50.34345622 52.77384949 52.2326355 C53.34155563 52.77629257 53.90926178 53.31994965 54.49417114 53.88008118 C57.19093352 56.6585433 58.1732282 58.1965667 58.39222717 62.10432434 C56.88511241 66.5241058 54.77819462 68.87622163 51.48674011 72.09713745 C50.89151047 72.70288101 50.29628082 73.30862457 49.68301392 73.932724 C47.71920767 75.92285278 45.73436738 77.8903262 43.74723816 79.85714722 C42.37210671 81.23632188 40.99786686 82.61638606 39.6244812 83.99729919 C36.74642509 86.88419098 33.85782173 89.75997684 30.96134949 92.62838745 C27.24960065 96.30592005 23.56548337 100.00977815 19.8888216 103.72235012 C17.05748652 106.57536319 14.21201973 109.41393469 11.36206627 112.2483387 C9.9977027 113.60870052 8.63778016 114.97353153 7.2824192 116.34286308 C5.38680167 118.25371804 3.47301363 120.14428383 1.55314636 122.0307312 C0.99654327 122.59947968 0.43994019 123.16822815 -0.13352966 123.75421143 C-2.79009367 126.32572732 -4.37156174 127.55277472 -8.08364868 128.05357361 C-11.06898629 127.56786651 -12.01528287 126.99540043 -13.80354309 124.61105347 C-13.95049622 125.75380737 -13.95049622 125.75380737 -14.10041809 126.91964722 C-15.81370797 138.75020924 -19.64365532 148.9655432 -29.31526184 156.59152222 C-45.22033997 167.23272285 -64.7662246 170.04566924 -83.54475403 169.36911011 C-85.53432017 169.29922865 -87.52441929 169.24510268 -89.51448059 169.19113159 C-97.11562888 168.93598283 -104.37267361 168.25341143 -111.80354309 166.61105347 C-111.80354309 165.62105347 -111.80354309 164.63105347 -111.80354309 163.61105347 C-110.60858215 163.17535034 -109.41362122 162.73964722 -108.18244934 162.29074097 C-96.70579051 158.07056337 -96.70579051 158.07056337 -86.33479309 151.67745972 C-84.80354309 150.61105347 -84.80354309 150.61105347 -82.80354309 150.61105347 C-82.80354309 149.95105347 -82.80354309 149.29105347 -82.80354309 148.61105347 C-81.30744934 147.17355347 -81.30744934 147.17355347 -79.36604309 145.61105347 C-76.65166071 143.46580303 -76.65166071 143.46580303 -74.80354309 140.61105347 C-74.14354309 140.61105347 -73.48354309 140.61105347 -72.80354309 140.61105347 C-72.43229309 139.65199097 -72.43229309 139.65199097 -72.05354309 138.67355347 C-70.69188891 135.33750072 -69.20956153 132.06868608 -67.70588684 128.79464722 C-64.65810213 121.4192721 -64.61794338 112.87572448 -67.42854309 105.42355347 C-71.07786346 97.40278573 -75.93446459 90.16416481 -83.11604309 84.92355347 C-83.95135559 84.27386597 -83.95135559 84.27386597 -84.80354309 83.61105347 C-84.80354309 82.95105347 -84.80354309 82.29105347 -84.80354309 81.61105347 C-85.50479309 81.38417847 -86.20604309 81.15730347 -86.92854309 80.92355347 C-89.75872185 79.63151534 -91.80255709 78.06816053 -94.13948059 76.03683472 C-95.96207235 74.4752244 -97.83252375 73.00389158 -99.74104309 71.54855347 C-100.34819153 71.0832019 -100.95533997 70.61785034 -101.58088684 70.13839722 C-104.54596018 68.10088636 -107.66977506 66.37063766 -110.80354309 64.61105347 C-111.81932434 64.02066284 -112.83510559 63.43027222 -113.88166809 62.82199097 C-131.7252142 52.49383004 -150.17906996 42.15254451 -169.80354309 35.61105347 C-169.47354309 34.62105347 -169.14354309 33.63105347 -168.80354309 32.61105347 C-161.30281659 32.34967651 -154.36070809 33.31861576 -146.99104309 34.67355347 C-145.7698175 34.89688354 -144.54859192 35.12021362 -143.2903595 35.35031128 C-119.32560235 39.86385298 -96.43884351 46.61702016 -73.62538147 55.17703247 C-72.90860355 55.44594425 -72.19182564 55.71485603 -71.45332718 55.99191666 C-70.63668406 56.29838938 -70.63668406 56.29838938 -69.80354309 56.61105347 C-68.70813202 55.50564964 -68.70813202 55.50564964 -67.59059143 54.37791443 C-60.71253894 47.43908666 -53.82660877 40.50816364 -46.93285751 33.58493137 C-43.38883616 30.02524412 -39.8476635 26.46281596 -36.31282043 22.89401245 C-32.90236612 19.4509982 -29.4846676 16.01533192 -26.06179047 12.58466911 C-24.75620794 11.27353707 -23.45327185 9.95976437 -22.15302277 8.64334297 C-20.33347264 6.80206389 -18.50479814 4.97033978 -16.67366028 3.14059448 C-16.13634781 2.59249619 -15.59903534 2.04439789 -15.04544067 1.47969055 C-9.81794906 -3.7048509 -5.85764096 -4.99139503 0 0 Z " fill="#477AD5" transform="translate(182.8035430908203,46.388946533203125)"/>
<path d="M0 0 C4.46043061 3.82322624 8.77394336 7.60842327 12.95117188 11.71069336 C13.50000031 12.24652542 14.04882874 12.78235748 14.61428833 13.33442688 C20.26910374 18.86386363 25.89044797 24.42744331 31.50878906 29.99389648 C34.17364909 32.63186103 36.84910904 35.25834512 39.53417969 37.87573242 C42.78890918 41.0486685 46.02372015 44.24067479 49.24525452 47.44729805 C50.47284744 48.6626384 51.70732157 49.87106914 52.94871521 51.07230949 C54.67969079 52.74998045 56.38390762 54.45101564 58.08398438 56.15991211 C58.60022369 56.64896027 59.11646301 57.13800842 59.64834595 57.64187622 C62.23437483 60.2978996 62.98679623 61.7216467 63.16410828 65.45962524 C61.69577827 69.9252223 59.60083089 72.24648417 56.2902832 75.48608398 C55.69505356 76.09182755 55.09982391 76.69757111 54.48655701 77.32167053 C52.52275076 79.31179931 50.53791047 81.27927273 48.55078125 83.24609375 C47.1756498 84.62526842 45.80140996 86.0053326 44.42802429 87.38624573 C41.54996818 90.27313751 38.66136482 93.14892337 35.76489258 96.01733398 C32.05314374 99.69486658 28.36902647 103.39872469 24.69236469 107.11129665 C21.86102961 109.96430973 19.01556282 112.80288122 16.16560936 115.63728523 C14.80124579 116.99764705 13.44132325 118.36247806 12.0859623 119.73180962 C10.19034476 121.64266458 8.27655672 123.53323036 6.35668945 125.41967773 C5.52178482 126.27280045 5.52178482 126.27280045 4.67001343 127.14315796 C2.0242033 129.70426425 0.4459362 130.94093944 -3.25276184 131.43080139 C-6 131 -6 131 -8.3125 129.6875 C-10.26117453 126.58405538 -10.01089307 125.65694122 -9.88842773 122.10791016 C-10.57201525 113.72571285 -16.72686965 109.04942332 -22.47265625 103.5859375 C-23.63932823 102.44048743 -24.80371971 101.29271041 -25.96592712 100.14273071 C-29.01380445 97.13846336 -32.09005995 94.165048 -35.17388916 91.19775391 C-38.32076667 88.1606098 -41.44211606 85.0974915 -44.56445312 82.03515625 C-48.06650176 78.60054479 -51.57048259 75.16843609 -55.09742737 71.7593689 C-55.6296994 71.24353241 -56.16197144 70.72769592 -56.71037292 70.19622803 C-58.14940533 68.80249995 -59.5909218 67.41133798 -61.03260803 66.02035522 C-63 64 -63 64 -63 63 C-42.21 63 -21.42 63 0 63 C0 42.21 0 21.42 0 0 Z " fill="#054C05" transform="translate(178,43)"/>
<path d="M0 0 C4.43393514 0.59163452 8.18165681 1.73775134 12.3125 3.4375 C17.53518296 5.5110366 22.49725146 6.91749209 28 8 C28.66 8.33 29.32 8.66 30 9 C30 9.66 30 10.32 30 11 C31.19496094 11.25523438 31.19496094 11.25523438 32.4140625 11.515625 C38.49104229 12.90549386 42.89394661 14.3369617 48 18 C49.65258399 18.70084833 51.3210875 19.36480314 53 20 C57.1298891 21.58457981 60.52406616 23.25584171 64 26 C64 26.66 64 27.32 64 28 C64.99 28 65.98 28 67 28 C67 28.66 67 29.32 67 30 C67.66 30 68.32 30 69 30 C69 30.66 69 31.32 69 32 C69.7425 32.268125 70.485 32.53625 71.25 32.8125 C73.90909879 33.9607472 75.87781485 35.03501375 78 37 C78 37.99 78 38.98 78 40 C78.66 40 79.32 40 80 40 C80 40.66 80 41.32 80 42 C80.763125 42.0825 81.52625 42.165 82.3125 42.25 C85.60452424 43.16870444 86.00926513 44.34568683 88 47 C90.59855733 47.8042208 90.59855733 47.8042208 93 48 C93 49.65 93 51.3 93 53 C93.66 52.01 94.32 51.02 95 50 C95.33 50.99 95.66 51.98 96 53 C96.99 52.34 97.98 51.68 99 51 C99.99 52.98 99.99 52.98 101 55 C101.495 54.01 101.495 54.01 102 53 C104.04119788 54.61594832 106.04072937 56.2856382 108 58 C108 58.66 108 59.32 108 60 C108.66 60 109.32 60 110 60 C111.02104551 60.97850195 112.0206121 61.97980427 113 63 C113.66 63.33 114.32 63.66 115 64 C115 64.66 115 65.32 115 66 C116.98 66.495 116.98 66.495 119 67 C119 67.66 119 68.32 119 69 C119.66 69 120.32 69 121 69 C121 69.66 121 70.32 121 71 C122.485 71.495 122.485 71.495 124 72 C128.1957857 82.98762609 127.39765977 99.24701257 123 110 C115.16169664 120.12894909 99.20678536 123.83994865 87.13970947 125.73370361 C81.15282092 126.47879859 75.11476161 126.4011822 69.09179688 126.33618164 C66.73793668 126.31237801 64.38520211 126.31567807 62.03125 126.32226562 C53.82373873 126.30578857 46.02798581 125.92121797 38 124 C38 123.34 38 122.68 38 122 C39.05058594 121.63648438 40.10117188 121.27296875 41.18359375 120.8984375 C48.48635032 118.30534151 55.14468294 115.80998775 61.3984375 111.1015625 C63 110 63 110 65 110 C65 109.34 65 108.68 65 108 C66.49609375 106.5625 66.49609375 106.5625 68.4375 105 C71.15188238 102.85474956 71.15188238 102.85474956 73 100 C73.93972656 99.58814453 73.93972656 99.58814453 74.8984375 99.16796875 C79.68629856 96.50705712 81.38019109 89.56427962 83.3125 84.6875 C85.27063578 74.18477172 84.42114468 65.3038564 79 56 C73.14076112 47.63266966 66.17044183 41.10074105 58 35 C56.98679688 34.22269531 55.97359375 33.44539063 54.9296875 32.64453125 C41.18924841 22.31748037 25.88640367 14.18888814 10.4453125 6.71875 C6.87340141 4.93684424 3.44722516 3.01014664 0 1 C0 0.67 0 0.34 0 0 Z " fill="#538BED" transform="translate(35,87)"/>
<path d="M0 0 C0.66 0 1.32 0 2 0 C2 20.79 2 41.58 2 63 C-18.79 63 -39.58 63 -61 63 C-57.20941113 58.57764631 -53.49666536 54.35484121 -49.37768555 50.2800293 C-48.85172287 49.75552689 -48.32576019 49.23102448 -47.78385925 48.69062805 C-46.65556452 47.56610392 -45.52611745 46.44273496 -44.39560509 45.32044029 C-42.60716877 43.54488155 -40.82197535 41.76611753 -39.03755188 39.98652649 C-35.2570173 36.21735119 -31.4725383 32.45215188 -27.6875 28.6875 C-23.28221206 24.30581951 -18.87855924 19.92252105 -14.47907448 15.5350132 C-12.71892826 13.78135561 -10.9558031 12.03073069 -9.19255066 10.28019714 C-8.12000105 9.21127791 -7.04759038 8.14221924 -5.9753418 7.07299805 C-5.48342346 6.58624603 -4.99150513 6.09949402 -4.48468018 5.59799194 C-1.91627132 3.04521631 -1.91627132 3.04521631 0 0 Z " fill="#ADF1B1" transform="translate(176,43)"/>
<path d="M0 0 C20.79 0 41.58 0 63 0 C63 20.79 63 41.58 63 63 C58.511279 59.15252486 54.21743605 55.36369424 50.06469727 51.1940918 C49.51747513 50.64862198 48.97025299 50.10315216 48.40644836 49.54115295 C46.62393479 47.76299094 44.84504474 45.98125622 43.06640625 44.19921875 C41.82102303 42.95450991 40.57549146 41.70994949 39.32981873 40.4655304 C36.73363301 37.87081205 34.1392477 35.2743106 31.54614258 32.67651367 C28.21481477 29.33945331 24.87896943 26.00695043 21.54179478 22.67573833 C18.97591397 20.11345874 16.41240433 17.54881757 13.84962273 14.98343849 C12.61950099 13.75264811 11.38863168 12.52260445 10.15701485 11.29331017 C8.4454333 9.58425174 6.7370619 7.87204964 5.02954102 6.15893555 C4.51689697 5.64831573 4.00425293 5.13769592 3.47607422 4.61160278 C0 1.1142698 0 1.1142698 0 0 Z " fill="#45E447" transform="translate(115,106)"/>
<path d="M0 0 C4.488721 3.84747514 8.78256395 7.63630576 12.93530273 11.8059082 C13.75613594 12.62411293 13.75613594 12.62411293 14.59355164 13.45884705 C16.37606521 15.23700906 18.15495526 17.01874378 19.93359375 18.80078125 C21.17897697 20.04549009 22.42450854 21.29005051 23.67018127 22.5344696 C26.26636699 25.12918795 28.8607523 27.7256894 31.45385742 30.32348633 C34.78518523 33.66054669 38.12103057 36.99304957 41.45820522 40.32426167 C44.02408603 42.88654126 46.58759567 45.45118243 49.15037727 48.01656151 C50.38049901 49.24735189 51.61136832 50.47739555 52.84298515 51.70668983 C54.5545667 53.41574826 56.2629381 55.12795036 57.97045898 56.84106445 C58.48310303 57.35168427 58.99574707 57.86230408 59.52392578 58.38839722 C63 61.8857302 63 61.8857302 63 63 C42.21 63 21.42 63 0 63 C0 42.21 0 21.42 0 0 Z " fill="#09B40B" transform="translate(178,43)"/>
<path d="M0 0 C20.79 0 41.58 0 63 0 C61 2 61 2 57.375 2.16015625 C55.91647885 2.1375332 54.45809008 2.10456029 53 2.0625 C47.84898542 1.70145872 47.84898542 1.70145872 43 3 C42.34 2.67 41.68 2.34 41 2 C41 2.66 41 3.32 41 4 C40.34 4 39.68 4 39 4 C39 5.32 39 6.64 39 8 C37.60843357 9.22590376 36.20428625 10.44195118 34.7265625 11.5625 C32.23047358 13.64069168 30.30936663 16.10727701 28.296875 18.64453125 C27.86890625 19.09183594 27.4409375 19.53914063 27 20 C26.34 20 25.68 20 25 20 C25 20.66 25 21.32 25 22 C24.34 22 23.68 22 23 22 C23 22.66 23 23.32 23 24 C22.34 24 21.68 24 21 24 C21 24.66 21 25.32 21 26 C20.34 26 19.68 26 19 26 C18.67 27.32 18.34 28.64 18 30 C17.34 30 16.68 30 16 30 C16 30.66 16 31.32 16 32 C15.34 32 14.68 32 14 32 C14 32.66 14 33.32 14 34 C13.34 34 12.68 34 12 34 C12 34.66 12 35.32 12 36 C11.34 36 10.68 36 10 36 C9.87625 36.969375 9.7525 37.93875 9.625 38.9375 C9.41875 39.948125 9.2125 40.95875 9 42 C8.01 42.495 8.01 42.495 7 43 C6.34 42.67 5.68 42.34 5 42 C5 42.66 5 43.32 5 44 C4.34 44 3.68 44 3 44 C3.33 44.99 3.66 45.98 4 47 C3.01 47.66 2.02 48.32 1 49 C0 48 0 48 -0.12025452 46.05747986 C-0.11803391 45.20698563 -0.11581329 44.35649139 -0.11352539 43.48022461 C-0.11340454 42.50581421 -0.11328369 41.53140381 -0.11315918 40.52746582 C-0.10804321 39.49617554 -0.10292725 38.46488525 -0.09765625 37.40234375 C-0.09664917 36.45975708 -0.09564209 35.51717041 -0.09460449 34.54602051 C-0.08935477 31.00983471 -0.07539364 27.47366619 -0.0625 23.9375 C-0.041875 16.038125 -0.02125 8.13875 0 0 Z " fill="#055805" transform="translate(178,106)"/>
<path d="M0 0 C8.25 0 16.5 0 25 0 C25 20.79 25 41.58 25 63 C7.62068966 48.10344828 7.62068966 48.10344828 6.296875 43.6171875 C6.3125 41.5 6.3125 41.5 7 38 C7 37.01 7 36.02 7 35 C7.165 33.97132813 7.33 32.94265625 7.5 31.8828125 C8.06446952 27.49935391 8.07313134 23.28481971 8 18.875 C7.92122949 14.07787598 7.92891245 9.70274376 9 5 C9 3.68 9 2.36 9 1 C6.03 1 3.06 1 0 1 C0 0.67 0 0.34 0 0 Z " fill="#50F753" transform="translate(153,106)"/>
<path d="M0 0 C4.43393514 0.59163452 8.18165681 1.73775134 12.3125 3.4375 C17.53518296 5.5110366 22.49725146 6.91749209 28 8 C28.66 8.33 29.32 8.66 30 9 C30 9.66 30 10.32 30 11 C31.14275391 11.22042969 31.14275391 11.22042969 32.30859375 11.4453125 C39.81616592 13.07617087 44.89333554 15.45481163 51 20 C51.99773437 20.66128906 52.99546875 21.32257813 54.0234375 22.00390625 C69.05828052 31.98547068 84.12939048 44.38817143 90 62 C90.45776567 68.40871935 90.45776567 68.40871935 88.5 70.9375 C88.005 71.288125 87.51 71.63875 87 72 C84.50095575 68.9812115 83.23839885 66.1801093 81.9375 62.5 C77.11839487 50.68959607 68.03883812 42.49584332 58 35 C56.98679688 34.22269531 55.97359375 33.44539063 54.9296875 32.64453125 C41.18924841 22.31748037 25.88640367 14.18888814 10.4453125 6.71875 C6.87340141 4.93684424 3.44722516 3.01014664 0 1 C0 0.67 0 0.34 0 0 Z " fill="#739DE8" transform="translate(35,87)"/>
<path d="M0 0 C0.1737089 2.04107956 0.33842913 4.08292375 0.5 6.125 C0.5928125 7.26195313 0.685625 8.39890625 0.78125 9.5703125 C1.17202076 15.70358171 1.03875974 21.8576579 1 28 C-2.95096978 28.04939662 -6.9018203 28.08571755 -10.85302734 28.10986328 C-12.8591136 28.12488107 -14.86511324 28.15028981 -16.87109375 28.17578125 C-18.12792969 28.18222656 -19.38476562 28.18867187 -20.6796875 28.1953125 C-21.84226074 28.20578613 -23.00483398 28.21625977 -24.20263672 28.22705078 C-27 28 -27 28 -29 26 C-29.72363804 19.92144044 -27.93702153 14.81841756 -24.5234375 9.8515625 C-18.59937315 2.57497204 -9.63524092 -3.21174697 0 0 Z " fill="#C4F4C7" transform="translate(177,78)"/>
<path d="M0 0 C3.16115776 1.36983503 3.9927092 1.9890638 6 5 C8.56282742 5.72965366 8.56282742 5.72965366 11 6 C11 7.65 11 9.3 11 11 C11.66 10.01 12.32 9.02 13 8 C13.33 8.99 13.66 9.98 14 11 C14.99 10.34 15.98 9.68 17 9 C17.66 10.32 18.32 11.64 19 13 C19.33 12.34 19.66 11.68 20 11 C22.04119788 12.61594832 24.04072937 14.2856382 26 16 C26 16.66 26 17.32 26 18 C26.66 18 27.32 18 28 18 C29.02104551 18.97850195 30.0206121 19.97980427 31 21 C31.66 21.33 32.32 21.66 33 22 C33 22.66 33 23.32 33 24 C34.32 24.33 35.64 24.66 37 25 C37 25.66 37 26.32 37 27 C37.66 27 38.32 27 39 27 C39 27.66 39 28.32 39 29 C39.99 29.33 40.98 29.66 42 30 C43.21631654 33.45689963 44 36.32831864 44 40 C41.48916886 38.74458443 41.12874554 37.49936512 40 35 C39.54625 35.474375 39.0925 35.94875 38.625 36.4375 C36.86237894 38.13232794 35.17470833 38.91264583 33 40 C32.01 39.505 32.01 39.505 31 39 C30.67 39.66 30.34 40.32 30 41 C29.443125 40.67 28.88625 40.34 28.3125 40 C25.66458461 38.85495551 23.85861469 38.85340437 21 39 C19 39 17 39 15 39 C15 38.34 15 37.68 15 37 C14.319375 36.401875 13.63875 35.80375 12.9375 35.1875 C12.298125 34.465625 11.65875 33.74375 11 33 C11.25 30.375 11.25 30.375 12 28 C12 27.34 12 26.68 12 26 C11.34 25.67 10.68 25.34 10 25 C10 24.01 10 23.02 10 22 C8.24714816 14.85375788 5.58761622 9.69497186 1 4 C1 3.34 1 2.68 1 2 C0.34 1.67 -0.32 1.34 -1 1 C-0.67 0.67 -0.34 0.34 0 0 Z " fill="#4D83E5" transform="translate(117,129)"/>
<path d="M0 0 C1.98 0.495 1.98 0.495 4 1 C-15.8 20.8 -35.6 40.6 -56 61 C-54.51131714 63.97736572 -53.46121178 65.83438636 -51.375 68.25 C-50.199375 69.61125 -50.199375 69.61125 -49 71 C-49.99 71 -50.98 71 -52 71 C-52 70.34 -52 69.68 -52 69 C-54.65228812 67.92474806 -57.28368454 66.90543849 -60 66 C-60.44996338 65.53174805 -60.89992676 65.06349609 -61.36352539 64.58105469 C-64.83820075 61.22405071 -69.99831656 59.97137144 -74.4375 58.25 C-75.48744141 57.82589844 -76.53738281 57.40179688 -77.61914062 56.96484375 C-78.63041016 56.56910156 -79.64167969 56.17335937 -80.68359375 55.765625 C-81.60712646 55.40243164 -82.53065918 55.03923828 -83.48217773 54.66503906 C-85.90064895 53.80625543 -85.90064895 53.80625543 -87.92675781 54.5 C-91.09776115 55.26474504 -93.40844828 54.20752192 -96.48828125 53.234375 C-97.10970505 53.04031067 -97.73112885 52.84624634 -98.37138367 52.64630127 C-99.68489341 52.23399775 -100.99687136 51.81678649 -102.30737305 51.39501953 C-104.29219249 50.75653263 -106.28116307 50.13281542 -108.27148438 49.51171875 C-114.32537698 47.60187303 -120.17826811 45.5258634 -126 43 C-128.4418214 42.29022721 -128.4418214 42.29022721 -130.6875 41.875 C-133.47835345 41.30988935 -136.24187478 40.70976586 -139 40 C-139 39.34 -139 38.68 -139 38 C-140.98 38 -142.96 38 -145 38 C-145.33 37.34 -145.66 36.68 -146 36 C-117.85781047 38.58847946 -90.27498024 47.30067601 -63.97924805 57.26318359 C-62.33187468 57.87645272 -60.66761633 58.44412789 -59 59 C-57.90458893 57.88793434 -57.90458893 57.88793434 -56.78704834 56.75340271 C-49.91421063 49.77934967 -43.02831635 42.81842793 -36.12931442 35.87025356 C-32.58259929 32.29740875 -29.04069863 28.7200473 -25.50927734 25.13208008 C-22.10315307 21.67175815 -18.68507359 18.22367848 -15.25824738 14.78386116 C-13.95088869 13.46724069 -12.64794991 12.1462166 -11.34947968 10.82082939 C-9.53441747 8.96964159 -7.70447891 7.13452691 -5.87011719 5.30249023 C-5.33280472 4.74720139 -4.79549225 4.19191254 -4.24189758 3.61979675 C-2.72088623 2.11961365 -2.72088623 2.11961365 0 0 Z " fill="#3557A3" transform="translate(172,44)"/>
<path d="M0 0 C1.1875 2.5625 1.1875 2.5625 2 5 C-0.34587745 6.12515804 -2.69958102 7.22411193 -5.0625 8.3125 C-5.69994141 8.62123047 -6.33738281 8.92996094 -6.99414062 9.24804688 C-19.26797033 14.82706038 -32.11065631 15.45513506 -45.34765625 15.28125 C-47.78921488 15.24948989 -50.23012815 15.24020256 -52.671875 15.234375 C-54.23438293 15.22522491 -55.79688431 15.2148556 -57.359375 15.203125 C-58.08429138 15.19887512 -58.80920776 15.19462524 -59.55609131 15.19024658 C-62.63438654 15.14624326 -65.05719622 14.98093459 -68 14 C-68 13.34 -68 12.68 -68 12 C-67.28199219 11.91363281 -66.56398438 11.82726562 -65.82421875 11.73828125 C-58.93560025 10.80321348 -52.43547028 9.37073615 -45.75 7.5 C-38.90656784 5.59988021 -32.30016473 4.39992861 -25.23486328 3.74487305 C-19.34546101 3.15843717 -13.77440968 1.85175324 -8.0871582 0.23217773 C-3.29453571 -1.09817857 -3.29453571 -1.09817857 0 0 Z " fill="#89B2F7" transform="translate(149,198)"/>
<path d="M0 0 C2.125 0.9375 2.125 0.9375 4 2 C4.28571429 9.42857143 4.28571429 9.42857143 2 13 C1.34 13 0.68 13 0 13 C-0.495 11.02 -0.495 11.02 -1 9 C-5.94121691 9.41176808 -10.52632402 10.07463071 -15.3125 11.375 C-20.72161051 12.80459973 -26.0924818 13.62603574 -31.625 14.375 C-39.25365592 15.41566463 -46.49212702 17.01743151 -53.82470703 19.37451172 C-59.03739818 20.98534808 -63.54087822 21.1982213 -69 21 C-69 21.66 -69 22.32 -69 23 C-71.64 22.67 -74.28 22.34 -77 22 C-72.7528971 19.80322264 -69.45869024 18.94808186 -64.6875 18.8125 C-55.85261496 18.13701728 -47.30192482 14.67788146 -40.1875 9.375 C-34.89460111 5.43127141 -28.69680083 2.32667321 -22 2 C-21.34 2.66 -20.68 3.32 -20 4 C-19.236875 3.67 -18.47375 3.34 -17.6875 3 C-15 2 -15 2 -12 2 C-10.5459375 1.7525 -10.5459375 1.7525 -9.0625 1.5 C-6 1 -6 1 -2 1 C-1.34 0.67 -0.68 0.34 0 0 Z " fill="#5F96F4" transform="translate(150,189)"/>
<path d="M0 0 C0.66 0 1.32 0 2 0 C2 16.17 2 32.34 2 49 C1.67 49 1.34 49 1 49 C1 38.77 1 28.54 1 18 C-11.14504182 17.79876739 -11.14504182 17.79876739 -20.859375 24.17578125 C-22.50786403 25.87042797 -24.13779371 27.58329947 -25.75 29.3125 C-26.57371094 30.16779297 -27.39742187 31.02308594 -28.24609375 31.90429688 C-29.82410663 33.5445663 -31.39446592 35.19224514 -32.95581055 36.84838867 C-34.60706309 38.58641431 -36.28341846 40.27685746 -38.00390625 41.9453125 C-40.206199 44.21225181 -41.00862036 46.02586107 -42 49 C-42.34417969 49.60199219 -42.68835938 50.20398438 -43.04296875 50.82421875 C-44.20044422 53.4557038 -44.20029985 55.38860556 -44.125 58.25 C-44.08375 59.8175 -44.0425 61.385 -44 63 C-49.61 63 -55.22 63 -61 63 C-55.85860363 56.71344113 -50.15178457 51.03477809 -44.39560509 45.32044029 C-42.60716877 43.54488155 -40.82197535 41.76611753 -39.03755188 39.98652649 C-35.2570173 36.21735119 -31.4725383 32.45215188 -27.6875 28.6875 C-23.28221206 24.30581951 -18.87855924 19.92252105 -14.47907448 15.5350132 C-12.71892826 13.78135561 -10.9558031 12.03073069 -9.19255066 10.28019714 C-8.12000105 9.21127791 -7.04759038 8.14221924 -5.9753418 7.07299805 C-5.48342346 6.58624603 -4.99150513 6.09949402 -4.48468018 5.59799194 C-1.91627132 3.04521631 -1.91627132 3.04521631 0 0 Z " fill="#89E890" transform="translate(176,43)"/>
<path d="M0 0 C4.06243957 -0.05819473 8.12477146 -0.09366215 12.1875 -0.125 C13.33798828 -0.14175781 14.48847656 -0.15851563 15.67382812 -0.17578125 C16.78564453 -0.18222656 17.89746094 -0.18867187 19.04296875 -0.1953125 C20.06414795 -0.20578613 21.08532715 -0.21625977 22.13745117 -0.22705078 C25.12612167 0.01000368 27.29423369 0.74382898 30 2 C29.835 3.216875 29.67 4.43375 29.5 5.6875 C28.90339506 10.8362824 29.00559958 15.90747393 29.16015625 21.08203125 C28.99784464 24.0392696 28.38697315 25.45351046 27 28 C23.15162167 24.1762616 19.30647906 20.34931029 15.46435547 16.51928711 C14.15568002 15.21565379 12.84611032 13.91291757 11.53564453 12.61108398 C9.65684348 10.74435384 7.78123696 8.87446632 5.90625 7.00390625 C5.31565796 6.41847549 4.72506592 5.83304474 4.11657715 5.22987366 C2.72527666 3.83876757 1.35971469 2.42199477 0 1 C0 0.67 0 0.34 0 0 Z " fill="#33C136" transform="translate(115,106)"/>
<path d="M0 0 C20.79 0 41.58 0 63 0 C61 2 61 2 57.59179688 2.21118164 C56.13403263 2.20408571 54.67629619 2.18634904 53.21875 2.16015625 C52.0648175 2.1523539 52.0648175 2.1523539 50.88757324 2.14439392 C48.42485868 2.1265502 45.96255627 2.09537568 43.5 2.0625 C41.03748365 2.03490408 38.57502579 2.01019093 36.11242676 1.99131775 C34.57876291 1.97904049 33.04513094 1.9614173 31.51159668 1.93800354 C27.62897848 1.82094958 27.62897848 1.82094958 24 3 C23.34 2.67 22.68 2.34 22 2 C22.33 2.99 22.66 3.98 23 5 C18.25 8 18.25 8 16 8 C15.71125 8.94875 15.4225 9.8975 15.125 10.875 C13.65633144 14.95463489 10.72949226 17.42089837 7.5625 20.3125 C5.38240513 22.66700246 3.73477449 25.30810855 2 28 C1.34 27.67 0.68 27.34 0 27 C0 18.09 0 9.18 0 0 Z " fill="#066A07" transform="translate(178,106)"/>
<path d="M0 0 C10.41021083 3.65464848 20.23000207 7.90058644 30.01757812 12.98535156 C31.95194023 13.97540192 33.90018039 14.9273708 35.859375 15.8671875 C51.44643007 23.37606478 66.54485996 32.07825453 80 43 C80.53705566 43.42635742 81.07411133 43.85271484 81.62744141 44.29199219 C93.23573698 53.52941559 104.32276041 63.72498103 106.44140625 79.23046875 C106.84386013 90.09672351 103.87847288 99.59297759 97 108 C97 104.4985379 97.93258154 102.7044969 99.4375 99.5625 C103.19247312 91.69952209 104.51027641 83.94617398 102.31640625 75.30859375 C98.92025125 66.30385082 93.51815845 58.02676428 85.6875 52.3125 C85.130625 51.879375 84.57375 51.44625 84 51 C84 50.34 84 49.68 84 49 C83.29875 48.773125 82.5975 48.54625 81.875 48.3125 C79.04482124 47.02046187 77.000986 45.45710706 74.6640625 43.42578125 C72.84147074 41.86417094 70.97101934 40.39283811 69.0625 38.9375 C68.45535156 38.47214844 67.84820312 38.00679687 67.22265625 37.52734375 C64.25758291 35.48983289 61.13376803 33.75958419 58 32 C56.98421875 31.40960938 55.9684375 30.81921875 54.921875 30.2109375 C37.07832889 19.88277657 18.62447314 9.54149105 -1 3 C-0.67 2.01 -0.34 1.02 0 0 Z " fill="#505358" transform="translate(14,79)"/>
<path d="M0 0 C0.495 1.98 0.495 1.98 1 4 C-0.7512844 6.2636602 -2.45688159 8.14990326 -4.48266602 10.14550781 C-5.3750724 11.05346603 -5.3750724 11.05346603 -6.2855072 11.97976685 C-8.26238362 13.98382075 -10.25719926 15.96884182 -12.25390625 17.953125 C-13.63167984 19.33680373 -15.00878216 20.72115117 -16.38523865 22.10614014 C-19.27666696 25.009469 -22.17723401 27.90327556 -25.08422852 30.79101562 C-28.80997274 34.49390003 -32.51035785 38.22099776 -36.20401096 41.95586014 C-39.04411665 44.82153773 -41.89815764 47.67300583 -44.7565136 50.52046967 C-46.12660255 51.88907052 -47.49210414 53.26227961 -48.85290718 54.64011383 C-50.75838884 56.56554585 -52.68200895 58.47081351 -54.61157227 60.37207031 C-55.45119003 61.23226273 -55.45119003 61.23226273 -56.30776978 62.10983276 C-58.95641865 64.68135163 -60.54365817 65.93855952 -64.25083923 66.43768311 C-67 66 -67 66 -69.375 64.625 C-71.86963042 60.5952124 -71.31735888 56.61933486 -71 52 C-70.54109375 52.40992188 -70.0821875 52.81984375 -69.609375 53.2421875 C-68.99578125 53.78101563 -68.3821875 54.31984375 -67.75 54.875 C-67.14671875 55.40867188 -66.5434375 55.94234375 -65.921875 56.4921875 C-63.77772813 58.27800279 -63.77772813 58.27800279 -60 60 C-40.2 40.2 -20.4 20.4 0 0 Z " fill="#3D3E40" transform="translate(239,108)"/>
<path d="M0 0 C4.29 0 8.58 0 13 0 C14.06375135 3.19125404 14.13335484 5.52470971 14.125 8.875 C14.12757813 9.90367188 14.13015625 10.93234375 14.1328125 11.9921875 C14 15 14 15 13.48828125 17.4375 C12.64510933 21.86246621 13.04159263 26.33386507 13.16015625 30.8203125 C13 34 13 34 11 37 C3.58665091 30.9544898 3.58665091 30.9544898 2.24609375 26.48828125 C2.00273328 23.96583067 1.94244178 21.5325618 2 19 C1.97679687 18.2884375 1.95359375 17.576875 1.9296875 16.84375 C1.88338166 15.22966065 1.93134922 13.61329344 2 12 C2.33 11.67 2.66 11.34 3 11 C3 10.05125 3 9.1025 3 8.125 C3 5 3 5 4 2 C2.68 1.34 1.36 0.68 0 0 Z " fill="#40D743" transform="translate(140,106)"/>
<path d="M0 0 C0 1.98 0 3.96 0 6 C-0.96679688 6.08636719 -1.93359375 6.17273438 -2.9296875 6.26171875 C-13.53117432 7.40583961 -22.87901382 9.29657245 -30 18 C-30.50273437 18.59039062 -31.00546875 19.18078125 -31.5234375 19.7890625 C-36.99904117 26.9207024 -39 36.07390495 -39 45 C-40.98 45 -42.96 45 -45 45 C-46.2972973 36.35135135 -46.2972973 36.35135135 -45 33 C-44.54625 31.824375 -44.0925 30.64875 -43.625 29.4375 C-41.43134872 24.79708384 -41.43134872 24.79708384 -39 23 C-38.34 23 -37.68 23 -37 23 C-36.74871338 22.42781738 -36.49742676 21.85563477 -36.23852539 21.26611328 C-33.8134217 16.82893361 -29.95613457 13.45874204 -26.4375 9.875 C-25.66341797 9.05128906 -24.88933594 8.22757813 -24.09179688 7.37890625 C-16.55971644 -0.28487584 -10.42844078 -1.89608014 0 0 Z " fill="#99ED9E" transform="translate(177,61)"/>
<path d="M0 0 C0.33 0 0.66 0 1 0 C1.04898438 0.62648437 1.09796875 1.25296875 1.1484375 1.8984375 C1.22320312 2.71570313 1.29796875 3.53296875 1.375 4.375 C1.47941406 5.59316406 1.47941406 5.59316406 1.5859375 6.8359375 C1.82892588 9.20334191 1.82892588 9.20334191 4 11 C4 15.36428581 3.26690489 18.80337757 2 23 C1.34 23 0.68 23 0 23 C-0.11472656 23.73476562 -0.22945312 24.46953125 -0.34765625 25.2265625 C-2.18756417 33.04892553 -7.74989886 38.17081141 -14.2578125 42.43359375 C-18.00290426 44.57288406 -21.86071814 46.31864013 -25.84765625 47.95703125 C-28.15710816 48.80597696 -28.15710816 48.80597696 -29 51 C-31.2578125 51.37890625 -31.2578125 51.37890625 -34.125 51.5625 C-38.4614141 51.87910911 -42.70516085 52.33191391 -47 53 C-43.96435153 50.97623435 -41.30239189 49.9653872 -37.875 48.75 C-32.60515382 46.77748774 -28.22914545 44.46747819 -23.70703125 41.13671875 C-22 40 -22 40 -20 40 C-20 39.34 -20 38.68 -20 38 C-18.50390625 36.5625 -18.50390625 36.5625 -16.5625 35 C-13.84811762 32.85474956 -13.84811762 32.85474956 -12 30 C-11.37351563 29.72542969 -10.74703125 29.45085937 -10.1015625 29.16796875 C-5.29999645 26.4994404 -3.54418321 19.49650383 -1.75 14.5625 C-0.73403202 9.7366521 -0.33772158 4.91473777 0 0 Z " fill="#4C81E0" transform="translate(120,157)"/>
<path d="M0 0 C6.75 3.75 6.75 3.75 9 6 C9.61236511 6.29359406 10.22473022 6.58718811 10.85565186 6.88967896 C13.40289248 8.20861351 15.20277291 9.81803413 17.30957031 11.76513672 C18.15013977 12.54130341 18.99070923 13.31747009 19.85675049 14.11715698 C23.17653027 17.24316444 26.47951068 20.38597292 29.75688553 23.55637932 C32.23617632 25.95408386 34.73048937 28.32862111 37.27539062 30.65673828 C55.9503749 47.77822861 55.9503749 47.77822861 56.50384521 58.31436157 C56.23176204 66.25184725 54.74777491 74.92846852 51 82 C50.01 82.495 50.01 82.495 49 83 C49.14042877 81.35369672 49.28749329 79.70795821 49.4375 78.0625 C49.51871094 77.14597656 49.59992188 76.22945313 49.68359375 75.28515625 C50 73 50 73 51 72 C51.78144902 62.78915005 51.7955557 53.88604182 45.73095703 46.44238281 C43.32853485 43.69513475 40.8276274 41.06670273 38.265625 38.46875 C36 36 36 36 36 34 C35.01 33.67 34.02 33.34 33 33 C33 32.34 33 31.68 33 31 C32.01 30.67 31.02 30.34 30 30 C30 29.34 30 28.68 30 28 C29.10595459 27.5970874 29.10595459 27.5970874 28.19384766 27.18603516 C25.98835912 25.99370672 24.62131705 24.8259622 22.8984375 23.0234375 C22.33036377 22.43860596 21.76229004 21.85377441 21.17700195 21.2512207 C20.58234131 20.63206787 19.98768066 20.01291504 19.375 19.375 C14.49795068 14.38567328 9.56011907 9.77414067 3.98828125 5.55078125 C2.17529282 4.13672151 0.58301768 2.66342493 -1 1 C-0.67 0.67 -0.34 0.34 0 0 Z " fill="#4166A7" transform="translate(113,109)"/>
<path d="M0 0 C3 2 3 2 4 5 C4.06970052 7.39490986 4.08448003 9.79167691 4.0625 12.1875 C4.05347656 13.45980469 4.04445312 14.73210937 4.03515625 16.04296875 C4.02355469 17.01878906 4.01195312 17.99460937 4 19 C1.22890693 19.05392397 -1.54113818 19.09363455 -4.3125 19.125 C-5.09818359 19.14175781 -5.88386719 19.15851563 -6.69335938 19.17578125 C-7.45068359 19.18222656 -8.20800781 19.18867187 -8.98828125 19.1953125 C-9.68477783 19.20578613 -10.38127441 19.21625977 -11.09887695 19.22705078 C-13 19 -13 19 -16 17 C-16 16.34 -16 15.68 -16 15 C-15.34 15 -14.68 15 -14 15 C-14.20625 14.443125 -14.4125 13.88625 -14.625 13.3125 C-15.12342848 10.2388577 -14.49545142 8.70605494 -13 6 C-11.0625 4.875 -11.0625 4.875 -9 4 C-8.484375 3.484375 -7.96875 2.96875 -7.4375 2.4375 C-5.14128633 0.14128633 -3.16926728 0 0 0 Z " fill="#F1FCF1" transform="translate(174,87)"/>
<path d="M0 0 C15.54926708 2.68090812 30.79980127 10.79980127 42 22 C42 22.99 42 23.98 42 25 C42.87011719 25.38671875 42.87011719 25.38671875 43.7578125 25.78125 C51.05769623 29.74913105 56.6788675 37.52397788 60 45 C59.505 45.99 59.505 45.99 59 47 C58.33355469 46.16597656 57.66710937 45.33195312 56.98046875 44.47265625 C50.93099846 37.03201858 44.73173424 30.74950439 37 25 C35.98808594 24.22398438 34.97617188 23.44796875 33.93359375 22.6484375 C23.3711327 14.71272086 11.8129199 7.90645995 0 2 C0 1.34 0 0.68 0 0 Z " fill="#9DBAEC" transform="translate(56,97)"/>
<path d="M0 0 C8 -0.26666667 8 -0.26666667 12 2 C13.99110401 2.38290462 15.99100513 2.72604615 18 3 C18 3.66 18 4.32 18 5 C19.010625 4.938125 20.02125 4.87625 21.0625 4.8125 C24.69116204 4.98529343 26.63459064 5.65138401 29.86157227 7.10668945 C34.27198138 8.94910148 38.87786821 10.2665087 43.4375 11.6875 C44.96407227 12.16799805 44.96407227 12.16799805 46.52148438 12.65820312 C49.01333172 13.44202365 51.50616516 14.22253096 54 15 C54 15.66 54 16.32 54 17 C55.14210937 17.27328125 56.28421875 17.5465625 57.4609375 17.828125 C72.63178848 21.62917338 90.0965625 26.57525039 102 37 C98.52127936 37 96.98407102 36.11526593 93.9375 34.5 C90.63492273 32.600584 90.63492273 32.600584 87 32 C87 31.34 87 30.68 87 30 C86.29875 30.061875 85.5975 30.12375 84.875 30.1875 C81.28831559 29.9535858 79.2119922 28.63030105 76 27 C73.17036637 25.79046895 70.30748433 24.67239822 67.4375 23.5625 C66.6439209 23.25538086 65.8503418 22.94826172 65.03271484 22.63183594 C56.43429674 19.34517521 47.76699046 16.63906506 38.8125 14.5 C34.05792305 13.35839973 29.72892694 11.73968084 25.234375 9.8359375 C22.83219001 8.84517007 22.83219001 8.84517007 19.4375 8.5 C14.84908808 7.83259463 11.15960596 5.97380248 7 4 C5.64876065 3.4099175 4.29486502 2.82585183 2.9375 2.25 C1.968125 1.8375 0.99875 1.425 0 1 C0 0.67 0 0.34 0 0 Z " fill="#4678D4" transform="translate(15,79)"/>
<path d="M0 0 C0.54337006 0.26926804 1.08674011 0.53853607 1.64657593 0.81596375 C-6.11582729 8.64777672 -13.8862393 16.47154437 -21.66707325 24.28504944 C-25.27949792 27.91315198 -28.88907022 31.54400146 -32.49234009 35.18119812 C-35.96764949 38.68902499 -39.45016623 42.18954292 -42.93787193 45.68504333 C-44.26939675 47.02212534 -45.59827163 48.36185153 -46.92447853 49.70420837 C-48.77778737 51.57918986 -50.6401665 53.44467731 -52.5050354 55.30815125 C-53.05529388 55.86919556 -53.60555237 56.43023987 -54.17248535 57.00828552 C-58.01126759 60.81596375 -58.01126759 60.81596375 -61.35342407 60.81596375 C-59.7426606 56.8213193 -56.9477385 54.1077075 -53.95742798 51.11357117 C-53.40760757 50.55542725 -52.85778717 49.99728333 -52.29130554 49.42222595 C-50.47629549 47.58316263 -48.65375337 45.75180978 -46.82998657 43.9214325 C-45.56439623 42.64687641 -44.29888421 41.37224256 -43.03344727 40.09753418 C-40.38243084 37.43004084 -37.72706319 34.76696161 -35.06924438 32.10624695 C-31.65859904 28.6902013 -28.26442424 25.25827219 -24.87395668 21.82221508 C-22.2676112 19.18619346 -19.65014994 16.56143109 -17.02943039 13.9397068 C-15.77258898 12.67864883 -14.51988498 11.41345356 -13.27138138 10.14414024 C-11.52853652 8.37456175 -9.77072448 6.62134012 -8.00820923 4.87138367 C-7.49274033 4.34108047 -6.97727142 3.81077728 -6.44618225 3.2644043 C-2.88411889 -0.22553625 -2.88411889 -0.22553625 0 0 Z " fill="#3D3F40" transform="translate(174.35342407226563,44.18403625488281)"/>
<path d="M0 0 C-0.99 0.33 -1.98 0.66 -3 1 C-3 1.99 -3 2.98 -3 4 C-13.84838367 7.17652018 -24.11825647 8.38707628 -35.4375 8.375 C-36.62835205 8.37628906 -37.8192041 8.37757813 -39.04614258 8.37890625 C-47.59428639 8.27047574 -47.59428639 8.27047574 -51 6 C-43.51887265 3.35462996 -36.45867871 2.39406542 -28.5625 1.9375 C-21.38524348 1.49467599 -14.48353475 0.86903005 -7.45288086 -0.69311523 C-4.72815045 -1.03401163 -2.64746642 -0.67214243 0 0 Z " fill="#98BAF4" transform="translate(141,205)"/>
<path d="M0 0 C1.2065625 0.0309375 1.2065625 0.0309375 2.4375 0.0625 C2.9325 2.5375 2.9325 2.5375 3.4375 5.0625 C2.40625 5.206875 1.375 5.35125 0.3125 5.5 C-0.96625 5.685625 -2.245 5.87125 -3.5625 6.0625 C-4.5525 6.165625 -5.5425 6.26875 -6.5625 6.375 C-12.84268345 7.81420871 -17.08465008 10.73913467 -20.5625 16.0703125 C-23.23369396 21.39183172 -23.86481842 27.16729072 -23.5625 33.0625 C-25.2125 33.0625 -26.8625 33.0625 -28.5625 33.0625 C-30.194349 25.62852121 -28.94598465 19.82946929 -25.5625 13.0625 C-24.1875 11.4375 -24.1875 11.4375 -22.5625 10.0625 C-21.86125 9.258125 -21.16 8.45375 -20.4375 7.625 C-16.15987525 3.81233446 -11.34523563 1.23642098 -5.5625 0.875 C-4.5725 0.9678125 -4.5725 0.9678125 -3.5625 1.0625 C-2.5625 0.0625 -2.5625 0.0625 0 0 Z " fill="#B7F2BB" transform="translate(173.5625,72.9375)"/>
<path d="M0 0 C0.33 2.31 0.66 4.62 1 7 C0.01 6.67 -0.98 6.34 -2 6 C-7.4498655 7.11733644 -11.59556447 9.56391734 -15 14 C-16.04783804 17.66743314 -16.25166274 20.38408541 -15 24 C-17.64 24 -20.28 24 -23 24 C-23.21192221 18.80790596 -22.5912689 14.873261 -21 10 C-20.34 10 -19.68 10 -19 10 C-18.896875 9.360625 -18.79375 8.72125 -18.6875 8.0625 C-18.460625 7.381875 -18.23375 6.70125 -18 6 C-17.01 5.67 -16.02 5.34 -15 5 C-14.54625 4.525625 -14.0925 4.05125 -13.625 3.5625 C-9.63465138 -0.27437368 -5.30424565 -0.20800963 0 0 Z " fill="#D2F7D4" transform="translate(176,82)"/>
<path d="M0 0 C-0.33 1.32 -0.66 2.64 -1 4 C-1.64066406 3.96519531 -2.28132813 3.93039063 -2.94140625 3.89453125 C-8.7832089 3.71170285 -12.67924446 4.33962223 -18 7 C-19.093125 7.309375 -20.18625 7.61875 -21.3125 7.9375 C-24.09110228 8.72097511 -24.09110228 8.72097511 -25.125 10.875 C-25.558125 11.926875 -25.558125 11.926875 -26 13 C-26.61875 13.5775 -27.2375 14.155 -27.875 14.75 C-34.41261869 21.6721845 -35.02792806 29.89322075 -36 39 C-36.99 39 -37.98 39 -39 39 C-41.00401376 32.82705249 -39.3416806 25.9298748 -36.703125 20.16796875 C-31.2910245 10.86417743 -23.89642193 3.69192678 -13.48828125 0.4921875 C-9.00945554 -0.39373407 -4.54138029 -0.22919115 0 0 Z " fill="#A4F0A9" transform="translate(177,67)"/>
<path d="M0 0 C0 3.49146548 -0.93185523 4.75276282 -3.19921875 7.3203125 C-17.86024161 20.99545313 -40.47954874 24.42113495 -59.7421875 23.83007812 C-60.40186523 23.80631104 -61.06154297 23.78254395 -61.74121094 23.75805664 C-63.73077708 23.68817519 -65.7208762 23.63404922 -67.7109375 23.58007812 C-75.31208578 23.32492936 -82.56913052 22.64235797 -90 21 C-90 20.01 -90 19.02 -90 18 C-89.26676514 18.14002441 -88.53353027 18.28004883 -87.77807617 18.42431641 C-78.25206616 20.0824799 -68.96166438 20.40095817 -59.3125 20.375 C-58.51696716 20.37412384 -57.72143433 20.37324768 -56.90179443 20.37234497 C-37.83524651 20.30302166 -18.91893904 18.29437217 -4 5 C-3.36707617 2.88719655 -3.36707617 2.88719655 -3 1 C-2.01 0.67 -1.02 0.34 0 0 Z " fill="#494D54" transform="translate(161,192)"/>
<path d="M0 0 C0.495 2.97 0.495 2.97 1 6 C0.01 6.33 -0.98 6.66 -2 7 C-2.495 5.02 -2.495 5.02 -3 3 C-7.94121691 3.41176808 -12.52632402 4.07463071 -17.3125 5.375 C-26.06809772 7.6767293 -35.04709336 8.75003724 -44 10 C-45.36856846 10.19475901 -46.73706714 10.39000961 -48.10546875 10.5859375 C-49.06066406 10.72257813 -50.01585938 10.85921875 -51 11 C-43.78577704 5.12795805 -35.06057727 3.51648242 -26 3 C-21.03474274 2.6331511 -16.61402577 1.94990283 -11.875 0.375 C-7.43201548 -1.06202781 -4.51880079 -1.0805828 0 0 Z " fill="#6B9FF8" transform="translate(152,195)"/>
<path d="M0 0 C12.66970387 -0.18451025 12.66970387 -0.18451025 18 1 C18.68707555 3.49064888 19 5.37886292 19 8 C18.01 8.495 18.01 8.495 17 9 C17.20625 9.94875 17.4125 10.8975 17.625 11.875 C17.74875 12.90625 17.8725 13.9375 18 15 C17.34 15.66 16.68 16.32 16 17 C13.32932797 14.3581833 10.66414667 11.7108958 8 9.0625 C7.236875 8.30775391 6.47375 7.55300781 5.6875 6.77539062 C4.965625 6.05673828 4.24375 5.33808594 3.5 4.59765625 C2.8296875 3.93258057 2.159375 3.26750488 1.46875 2.58227539 C0 1 0 1 0 0 Z " fill="#29B12D" transform="translate(115,106)"/>
<path d="M0 0 C0.495 1.485 0.495 1.485 1 3 C-2.38908578 9.57750201 -6.83229222 14.08587776 -13 18 C-13.50789063 18.515625 -14.01578125 19.03125 -14.5390625 19.5625 C-16.44678607 21.43961838 -18.53289947 22.02614453 -21 23 C-21.33 23.66 -21.66 24.32 -22 25 C-24.2578125 25.37890625 -24.2578125 25.37890625 -27.125 25.5625 C-31.4614141 25.87910911 -35.70516085 26.33191391 -40 27 C-36.96435153 24.97623435 -34.30239189 23.9653872 -30.875 22.75 C-25.60515382 20.77748774 -21.22914545 18.46747819 -16.70703125 15.13671875 C-15 14 -15 14 -13 14 C-13 13.34 -13 12.68 -13 12 C-11.50390625 10.5625 -11.50390625 10.5625 -9.5625 9 C-6.84811762 6.85474956 -6.84811762 6.85474956 -5 4 C-3.66666667 3.33333333 -2.33333333 2.66666667 -1 2 C-0.67 1.34 -0.34 0.68 0 0 Z " fill="#456AAE" transform="translate(113,183)"/>
<path d="M0 0 C0.99 0.66 1.98 1.32 3 2 C3.6875 5.625 3.6875 5.625 4 9 C0.7 8.67 -2.6 8.34 -6 8 C-8.2236068 11.7018576 -8.2236068 11.7018576 -8 15 C-8 16.32 -8 17.64 -8 19 C-10.64 18.67 -13.28 18.34 -16 18 C-16 17.01 -16 16.02 -16 15 C-15.34 15 -14.68 15 -14 15 C-14.20625 14.443125 -14.4125 13.88625 -14.625 13.3125 C-15.12342848 10.2388577 -14.49545142 8.70605494 -13 6 C-11.0625 4.875 -11.0625 4.875 -9 4 C-8.484375 3.484375 -7.96875 2.96875 -7.4375 2.4375 C-5.14128633 0.14128633 -3.16926728 0 0 0 Z " fill="#E1FAE3" transform="translate(174,87)"/>
<path d="M0 0 C10.30417773 2.76672406 16.38657463 11.92628087 21.72265625 20.65234375 C24.24887323 25.29532969 24.08446523 28.84762123 24 34 C22.515 34.495 22.515 34.495 21 35 C20.37395415 33.29204966 19.74921585 31.58362002 19.125 29.875 C18.56619141 28.3590625 18.56619141 28.3590625 17.99609375 26.8125 C17 24 17 24 16.1875 20.875 C13.19485876 13.62965805 7.52173186 8.24040337 1.50390625 3.41015625 C1.00761719 2.94480469 0.51132813 2.47945313 0 2 C0 1.34 0 0.68 0 0 Z " fill="#7BA2E6" transform="translate(98,120)"/>
<path d="M0 0 C1.65 0.33 3.3 0.66 5 1 C6.22236309 6.01168869 5.48060253 9.12272106 4 14 C3.96227087 15.9996441 3.95350094 18.00054061 4 20 C3.67 20.66 3.34 21.32 3 22 C3.66 22.33 4.32 22.66 5 23 C4.835 23.763125 4.67 24.52625 4.5 25.3125 C3.90854604 28.03596236 3.90854604 28.03596236 4 31 C2.125 30.4375 2.125 30.4375 0 29 C-2.45841665 23.22272088 -2.46220954 17.21295619 -2 11 C-1.67 10.67 -1.34 10.34 -1 10 C-1 9.071875 -1 8.14375 -1 7.1875 C-1 4.50698421 -0.77872971 2.53087156 0 0 Z " fill="#3ACE3C" transform="translate(144,107)"/>
<path d="M0 0 C6.43197373 0.62893292 12.67682992 1.61071938 19 2.9375 C19.85722656 3.10701172 20.71445312 3.27652344 21.59765625 3.45117188 C22.41105469 3.62068359 23.22445312 3.79019531 24.0625 3.96484375 C24.79597656 4.1155835 25.52945313 4.26632324 26.28515625 4.42163086 C28 5 28 5 29 7 C29.99 7.33 30.98 7.66 32 8 C32 8.66 32 9.32 32 10 C32.70382813 10.08636719 33.40765625 10.17273438 34.1328125 10.26171875 C42.60505692 11.46729922 50.05471775 13.92061546 58 17 C57.34 17.66 56.68 18.32 56 19 C51.99658595 17.77817136 47.9948013 16.5511776 43.99438477 15.31958008 C42.63608685 14.90217553 41.27736963 14.4861327 39.91821289 14.0715332 C37.95344349 13.47192859 35.99028419 12.86728038 34.02734375 12.26171875 C32.84906006 11.90037842 31.67077637 11.53903809 30.45678711 11.16674805 C26.86269174 9.95365519 23.47561048 8.51444848 20 7 C17.5581786 6.29022721 17.5581786 6.29022721 15.3125 5.875 C12.52164655 5.30988935 9.75812522 4.70976586 7 4 C7 3.34 7 2.68 7 2 C5.02 2 3.04 2 1 2 C0.67 1.34 0.34 0.68 0 0 Z " fill="#3A66BE" transform="translate(26,80)"/>
<path d="M0 0 C0.66 0 1.32 0 2 0 C2 16.17 2 32.34 2 49 C1.67 49 1.34 49 1 49 C0.505 31.675 0.505 31.675 0 14 C-0.99 14.33 -1.98 14.66 -3 15 C-5.59739075 14.61989404 -7.64991549 14.17504225 -10 13 C-8.60366893 9.81440048 -6.95442507 7.76056155 -4.4375 5.375 C-1.85984611 2.95478041 -1.85984611 2.95478041 0 0 Z " fill="#77E67D" transform="translate(176,43)"/>
<path d="M0 0 C1.1875 2.5625 1.1875 2.5625 2 5 C0.25 5.625 0.25 5.625 -2 6 C-2.5775 5.67 -3.155 5.34 -3.75 5 C-8.81774856 2.74766731 -16.44917198 5.4406819 -21.6875 6.5 C-28.76881541 7.88965795 -35.7865273 8.64179673 -43 9 C-43.33 8.34 -43.66 7.68 -44 7 C-30.82070086 3.94086341 -30.82070086 3.94086341 -24.625 3.5625 C-19.01990343 3.18603829 -13.78239863 1.79658191 -8.39306641 0.28344727 C-3.30666057 -1.10222019 -3.30666057 -1.10222019 0 0 Z " fill="#7AA8F8" transform="translate(149,198)"/>
<path d="M0 0 C3.36045516 2.17207453 6.47138432 4.20793253 7.64208984 8.17675781 C7.83608154 10.69292898 7.81516798 13.10462522 7.6875 15.625 C7.66478027 16.50712158 7.64206055 17.38924316 7.61865234 18.2980957 C7.32004623 25.23782889 6.29506007 31.78267862 3 38 C2.01 38.495 2.01 38.495 1 39 C1.14042877 37.35369672 1.28749329 35.70795821 1.4375 34.0625 C1.51871094 33.14597656 1.59992188 32.22945312 1.68359375 31.28515625 C2 29 2 29 3 28 C3.55629014 18.58187858 3.47703399 9.46498023 -1 1 C-0.67 0.67 -0.34 0.34 0 0 Z " fill="#3B63B3" transform="translate(161,153)"/>
<path d="M0 0 C12.19781136 8.28332749 23.82748554 19.49368804 28 34 C28.53469128 40.3093571 28.53469128 40.3093571 26.5 42.9375 C25.7575 43.4634375 25.7575 43.4634375 25 44 C24.34 42.68 23.68 41.36 23 40 C23.33 39.67 23.66 39.34 24 39 C24.99331506 31.33728383 22.27329099 26.27096767 18 20 C15.15460477 16.50616436 12.15207782 13.21812135 9 10 C8.47792969 9.4328125 7.95585938 8.865625 7.41796875 8.28125 C5.91111542 6.74737448 5.91111542 6.74737448 3 6 C0 2.55555556 0 2.55555556 0 0 Z " fill="#6997E7" transform="translate(97,115)"/>
<path d="M0 0 C0.99 0 1.98 0 3 0 C8.40120457 10.70595906 9.83887122 19.78422245 6.3125 31.375 C4.51458412 36.23388377 2.27254264 40.00022567 -1 44 C-1 40.4985379 -0.06741846 38.7044969 1.4375 35.5625 C5.18454592 27.71612179 6.70803055 19.69861103 4.140625 11.1328125 C3.4549358 9.45833959 2.73559077 7.79696939 1.97265625 6.15625 C1.04915844 4.10897775 0.47282287 2.18991643 0 0 Z " fill="#494C50" transform="translate(112,143)"/>
<path d="M0 0 C8 -0.26666667 8 -0.26666667 12 2 C13.99110401 2.38290462 15.99100513 2.72604615 18 3 C18 3.66 18 4.32 18 5 C19.010625 4.938125 20.02125 4.87625 21.0625 4.8125 C26.23104786 5.05862133 30.23904919 6.23904919 34 10 C31.77027727 9.88534579 29.54121247 9.75785234 27.3125 9.625 C26.07113281 9.55539063 24.82976563 9.48578125 23.55078125 9.4140625 C20.20415192 9.02380649 18.03225847 8.38510572 15 7 C13.7456719 6.49197403 12.48893936 5.98986319 11.23046875 5.4921875 C7.48697917 3.99479167 3.74348958 2.49739583 0 1 C0 0.67 0 0.34 0 0 Z " fill="#406EC5" transform="translate(15,79)"/>
<path d="M0 0 C11.11416352 3.90178081 21.56723404 8.53389656 32 14 C32 14.66 32 15.32 32 16 C32.99 16.33 33.98 16.66 35 17 C34.01 17.495 34.01 17.495 33 18 C31.11157227 17.36669922 31.11157227 17.36669922 28.81640625 16.3046875 C27.55558228 15.72847656 27.55558228 15.72847656 26.26928711 15.140625 C25.37604736 14.72296875 24.48280762 14.3053125 23.5625 13.875 C22.65830322 13.45992187 21.75410645 13.04484375 20.82250977 12.6171875 C18.21197135 11.4179092 15.60581136 10.20950555 13 9 C10.81448542 7.9955518 8.62638821 6.99709463 6.4375 6 C5.63183594 5.62875 4.82617188 5.2575 3.99609375 4.875 C1.86189634 3.90327036 1.86189634 3.90327036 -1 3 C-0.67 2.01 -0.34 1.02 0 0 Z " fill="#4B4D52" transform="translate(14,79)"/>
<path d="M0 0 C1.09266193 3.2779858 0.8361233 3.84131197 0 7 C0 8.65 0 10.3 0 12 C-4.29 12 -8.58 12 -13 12 C-2.88235294 0 -2.88235294 0 0 0 Z " fill="#7DE983" transform="translate(128,94)"/>
<path d="M0 0 C0.33 0.99 0.66 1.98 1 3 C-2.13850064 3.92553743 -4.93680778 4.11664647 -8.203125 4.09765625 C-9.1828125 4.09443359 -10.1625 4.09121094 -11.171875 4.08789062 C-12.18765625 4.07951172 -13.2034375 4.07113281 -14.25 4.0625 C-15.796875 4.05573242 -15.796875 4.05573242 -17.375 4.04882812 C-19.91672573 4.03706088 -22.45833319 4.02062011 -25 4 C-19.10414381 -1.89585619 -7.65233329 -0.19593457 0 0 Z " fill="#A6C2F4" transform="translate(118,209)"/>
<path d="M0 0 C2.56956379 0.878664 5.12927227 1.77686889 7.6875 2.6875 C8.40873047 2.93177734 9.12996094 3.17605469 9.87304688 3.42773438 C14.66392253 5.15594979 17.6002335 7.06598448 21 11 C21.59425781 11.66644531 22.18851563 12.33289063 22.80078125 13.01953125 C23.29964844 13.61121094 23.79851562 14.20289062 24.3125 14.8125 C24.82425781 15.41707031 25.33601563 16.02164063 25.86328125 16.64453125 C26.23839844 17.09183594 26.61351563 17.53914063 27 18 C26.01 18 25.02 18 24 18 C24 17.34 24 16.68 24 16 C23.2575 15.773125 22.515 15.54625 21.75 15.3125 C19 14 19 14 17.3125 11.625 C14.32917647 8.23852464 11.42271094 7.18226129 7.25 5.6875 C6.55261719 5.42388672 5.85523437 5.16027344 5.13671875 4.88867188 C3.42952712 4.24555174 1.71540698 3.62087492 0 3 C0 2.01 0 1.02 0 0 Z " fill="#355394" transform="translate(96,97)"/>
<path d="M0 0 C4.99381672 0.63983277 9.33627256 2.07788698 14 3.875 C14.68578125 4.13152344 15.3715625 4.38804688 16.078125 4.65234375 C20.18346712 6.2114336 24.10099886 7.96520878 28 10 C28 10.66 28 11.32 28 12 C21.33262547 12 16.48541633 10.07370362 10.625 7.125 C9.92310547 6.77308594 9.22121094 6.42117187 8.49804688 6.05859375 C5.17016215 4.32873676 2.58040861 2.76507432 0 0 Z " fill="#94B2E8" transform="translate(35,87)"/>
<path d="M0 0 C9.32457037 3.96562188 16.6151647 14.17652774 21 23 C21.71596346 25.48430694 21.94222746 27.40023587 22 30 C21.34 30.33 20.68 30.66 20 31 C17.11650485 24.44660194 17.11650485 24.44660194 16.25 21.125 C13.29711584 13.7427896 7.60861455 8.31014033 1.50390625 3.41015625 C1.00761719 2.94480469 0.51132813 2.47945313 0 2 C0 1.34 0 0.68 0 0 Z " fill="#8BADE9" transform="translate(98,120)"/>
<path d="M0 0 C-0.33 1.32 -0.66 2.64 -1 4 C-2.0725 3.835 -3.145 3.67 -4.25 3.5 C-12.35887997 2.509712 -20.15810185 2.50786448 -28.0859375 4.5546875 C-30.42217152 5.0982195 -32.61130764 5.15410918 -35 5 C-29.89086016 -0.10913984 -19.95228511 0.36850996 -13.125 -0.1875 C-12.08085938 -0.28224609 -11.03671875 -0.37699219 -9.9609375 -0.47460938 C-2.25656665 -1.12828333 -2.25656665 -1.12828333 0 0 Z " fill="#9ABDFA" transform="translate(125,207)"/>
<path d="M0 0 C1 2 1 2 0.4765625 4.03125 C0.05503906 5.25328125 0.05503906 5.25328125 -0.375 6.5 C-2.02118128 11.6565313 -2.6676196 16.61314516 -3 22 C-3.99 22 -4.98 22 -6 22 C-7.2972973 13.35135135 -7.2972973 13.35135135 -6 10 C-5.54625 8.824375 -5.0925 7.64875 -4.625 6.4375 C-3.26861819 3.56823079 -2.41002984 1.95097654 0 0 Z " fill="#93EC99" transform="translate(138,84)"/>
<path d="M0 0 C5.88112008 0.52510001 11.63687498 1.42082906 17.4375 2.5 C18.14777344 2.63059814 18.85804687 2.76119629 19.58984375 2.89575195 C24.75021037 3.87510519 24.75021037 3.87510519 27 5 C27 5.66 27 6.32 27 7 C21.35986605 7.2400057 16.45807424 6.38217407 11 5 C10.25105469 4.81308594 9.50210938 4.62617187 8.73046875 4.43359375 C7.87388672 4.21896484 7.87388672 4.21896484 7 4 C7 3.34 7 2.68 7 2 C5.02 2 3.04 2 1 2 C0.67 1.34 0.34 0.68 0 0 Z " fill="#37579D" transform="translate(26,80)"/>
<path d="M0 0 C6.88928893 4.6178885 15.3060324 10.9180972 18 19 C14.97484531 18.67587628 14.08758661 18.10171348 12.0625 15.75 C11.381875 14.8425 10.70125 13.935 10 13 C7.6370678 10.57799449 5.2442396 8.2238863 2.75 5.9375 C0.87375599 3.86022985 0.55607171 2.67470494 0 0 Z " fill="#52555B" transform="translate(96,124)"/>
<path d="M0 0 C3.3 0.33 6.6 0.66 10 1 C11.125 4.3125 11.125 4.3125 12 8 C11.01 9.485 11.01 9.485 10 11 C8.33035479 9.35718838 6.6643536 7.71067239 5 6.0625 C4.071875 5.14597656 3.14375 4.22945313 2.1875 3.28515625 C0 1 0 1 0 0 Z " fill="#24A12C" transform="translate(115,106)"/>
<path d="M0 0 C-6.435 1.98 -6.435 1.98 -13 4 C-12.67 4.66 -12.34 5.32 -12 6 C-13.43739513 6.02712066 -14.87493863 6.04645067 -16.3125 6.0625 C-17.51326172 6.07990234 -17.51326172 6.07990234 -18.73828125 6.09765625 C-21 6 -21 6 -24 5 C-24 4.34 -24 3.68 -24 3 C-23.14277344 2.87882813 -22.28554687 2.75765625 -21.40234375 2.6328125 C-14.08284038 1.62457531 -14.08284038 1.62457531 -6.9375 -0.1875 C-4 -1 -4 -1 0 0 Z " fill="#7EA7EE" transform="translate(105,207)"/>
<path d="M0 0 C-0.33 0.99 -0.66 1.98 -1 3 C-1.99 3.33 -2.98 3.66 -4 4 C-3.67 4.99 -3.34 5.98 -3 7 C-4.06927734 7.09087891 -4.06927734 7.09087891 -5.16015625 7.18359375 C-10.46960288 7.64808101 -15.733409 8.18075251 -21 9 C-16.94539441 6.2969296 -12.58755665 4.90171011 -8.03125 3.21875 C-0.02564103 0 -0.02564103 0 0 0 Z " fill="#4D6FAD" transform="translate(94,201)"/>
<path d="M0 0 C1.13199353 0.9080162 2.25532363 1.82683826 3.375 2.75 C4.00148437 3.26046875 4.62796875 3.7709375 5.2734375 4.296875 C7.08312318 6.08199481 8.00117455 7.67949644 9 10 C8.01 10.33 7.02 10.66 6 11 C3.375 9.5 3.375 9.5 1 7 C0.1875 3.25 0.1875 3.25 0 0 Z " fill="#595D63" transform="translate(168,160)"/>
<path d="M0 0 C8 -0.26666667 8 -0.26666667 12 2 C13.99110401 2.38290462 15.99100513 2.72604615 18 3 C14.39741985 5.4017201 13.26038184 5.47337576 9 5 C5.9109854 3.83909582 2.95303519 2.4699553 0 1 C0 0.67 0 0.34 0 0 Z " fill="#486FBA" transform="translate(15,79)"/>
<path d="M0 0 C-0.5546875 1.796875 -0.5546875 1.796875 -2 4 C-4.39155465 5.25026118 -6.62718145 6.28054963 -9.125 7.25 C-9.78371094 7.518125 -10.44242187 7.78625 -11.12109375 8.0625 C-12.74252303 8.7204713 -14.37065741 9.36187627 -16 10 C-16 9.01 -16 8.02 -16 7 C-13.71070947 5.82845707 -11.41881638 4.66261926 -9.125 3.5 C-8.47402344 3.16613281 -7.82304688 2.83226562 -7.15234375 2.48828125 C-2.2265625 0 -2.2265625 0 0 0 Z " fill="#598CE6" transform="translate(108,198)"/>
<path d="M0 0 C2.53926173 1.82671379 4.9050512 3.66877878 7 6 C7.4375 9.375 7.4375 9.375 7 12 C6.01 11.67 5.02 11.34 4 11 C4 10.34 4 9.68 4 9 C3.34 8.67 2.68 8.34 2 8 C0.94647157 5.69034152 -0.05719096 3.3570226 -1 1 C-0.67 0.67 -0.34 0.34 0 0 Z " fill="#33528F" transform="translate(161,153)"/>
<path d="M0 0 C7.04028542 0.98356929 12.89333173 2.26814717 19 6 C19.33 6.99 19.66 7.98 20 9 C14.46583851 7.36490683 14.46583851 7.36490683 12.125 5.53125 C9.7097783 3.79086965 7.6100881 3.1027875 4.75 2.3125 C3.85796875 2.06113281 2.9659375 1.80976562 2.046875 1.55078125 C1.37140625 1.36902344 0.6959375 1.18726562 0 1 C0 0.67 0 0.34 0 0 Z " fill="#5386E2" transform="translate(65,97)"/>
<path d="M0 0 C5.9129304 0.64270983 11.34244531 2.19003784 17 4 C17 4.66 17 5.32 17 6 C17.66 6.33 18.32 6.66 19 7 C12.28460827 5.70024676 6.27980887 3.70071112 0 1 C0 0.67 0 0.34 0 0 Z " fill="#5082DC" transform="translate(38,87)"/>
<path d="M0 0 C0.66 0 1.32 0 2 0 C1.50269348 4.97306516 0.44697666 8.63799813 -2 13 C-2.33 13 -2.66 13 -3 13 C-2.88557539 11.39504433 -2.75805306 9.79101881 -2.625 8.1875 C-2.55539063 7.29417969 -2.48578125 6.40085938 -2.4140625 5.48046875 C-2 3 -2 3 0 0 Z " fill="#40609E" transform="translate(165,179)"/>
<path d="M0 0 C5.76044212 0.60636233 10.72014369 2.75658279 16 5 C15.01 5.66 14.02 6.32 13 7 C8.1547309 5.89880248 4.21711323 3.53026794 0 1 C0 0.67 0 0.34 0 0 Z " fill="#7C9FDD" transform="translate(35,87)"/>
<path d="M0 0 C2.74097805 2.74097805 2.98573859 4.50997793 3.09765625 8.35546875 C3.08605469 9.62003906 3.07445312 10.88460937 3.0625 12.1875 C3.05347656 13.45980469 3.04445312 14.73210937 3.03515625 16.04296875 C3.02355469 17.01878906 3.01195312 17.99460938 3 19 C2.67 19 2.34 19 2 19 C2 15.37 2 11.74 2 8 C1.34 8 0.68 8 0 8 C0 5.36 0 2.72 0 0 Z " fill="#4373CD" transform="translate(162,162)"/>
<path d="M0 0 C1.32 0.33 2.64 0.66 4 1 C1.69 3.31 -0.62 5.62 -3 8 C-3.99 7.34 -4.98 6.68 -6 6 C-5.09972412 4.96468274 -4.17906965 3.94705835 -3.25 2.9375 C-2.48429688 2.08478516 -2.48429688 2.08478516 -1.703125 1.21484375 C-1.14109375 0.81394531 -0.5790625 0.41304687 0 0 Z " fill="#3D3F40" transform="translate(172,44)"/>
<path d="M0 0 C4.29 0.66 8.58 1.32 13 2 C11 4 11 4 7.625 4.1875 C4.85272822 4.04410663 2.61594556 3.83710258 0 3 C0 2.01 0 1.02 0 0 Z " fill="#4A4C50" transform="translate(71,210)"/>
<path d="M0 0 C0.99 0.33 1.98 0.66 3 1 C2.67 2.65 2.34 4.3 2 6 C-0.31 6 -2.62 6 -5 6 C-3.35 4.02 -1.7 2.04 0 0 Z " fill="#70E477" transform="translate(120,100)"/>
<path d="M0 0 C9.41002278 0.96355353 9.41002278 0.96355353 14 2 C14 2.66 14 3.32 14 4 C10.98968256 4.93423645 10.13349732 5.04449911 7 4 C7 3.34 7 2.68 7 2 C5.02 2 3.04 2 1 2 C0.67 1.34 0.34 0.68 0 0 Z " fill="#3B5EA7" transform="translate(26,80)"/>
<path d="M0 0 C4.99911924 0.47610659 7.97832683 2.03162219 12 5 C11.01 5.495 11.01 5.495 10 6 C6.05312508 4.56477275 2.68899452 3.32169911 0 0 Z " fill="#93B4ED" transform="translate(71,103)"/>
<path d="M0 0 C0.33 0 0.66 0 1 0 C1.49230769 7.38461538 1.49230769 7.38461538 -1 10.5 C-1.66 10.995 -2.32 11.49 -3 12 C-4 10 -4 10 -3.22265625 7.6171875 C-2.83980469 6.71226562 -2.45695312 5.80734375 -2.0625 4.875 C-1.68222656 3.96492187 -1.30195312 3.05484375 -0.91015625 2.1171875 C-0.60980469 1.41851562 -0.30945313 0.71984375 0 0 Z " fill="#4B7BD4" transform="translate(118,172)"/>
<path d="M0 0 C1.65 1.32 3.3 2.64 5 4 C0.70700357 5.26264601 -1.87831311 4.62950412 -6 3 C-6 2.67 -6 2.34 -6 2 C-4.02 2 -2.04 2 0 2 C0 1.34 0 0.68 0 0 Z " fill="#3760B5" transform="translate(53,85)"/>
<path d="M0 0 C0.928125 0.165 1.85625 0.33 2.8125 0.5 C5.95621353 1.07748388 5.95621353 1.07748388 9 1 C6.50494038 3.49505962 5.32671112 3.35948376 1.875 3.625 C0.96492188 3.69976562 0.05484375 3.77453125 -0.8828125 3.8515625 C-1.93082031 3.92503906 -1.93082031 3.92503906 -3 4 C-1.68 3.67 -0.36 3.34 1 3 C0.67 2.01 0.34 1.02 0 0 Z " fill="#96B2E2" transform="translate(118,209)"/>
<path d="M0 0 C1.31611677 0.95336021 2.62778961 1.91285774 3.9375 2.875 C4.66839844 3.40867187 5.39929688 3.94234375 6.15234375 4.4921875 C8 6 8 6 9 8 C5.625 7.375 5.625 7.375 2 6 C0.5625 2.875 0.5625 2.875 0 0 Z " fill="#585C63" transform="translate(96,124)"/>
<path d="M0 0 C0.33 0.66 0.66 1.32 1 2 C3.01669827 3.13350534 3.01669827 3.13350534 5 4 C2.8125 4.75 2.8125 4.75 0 5 C-2.8125 3.0625 -2.8125 3.0625 -5 1 C-3 0 -3 0 0 0 Z " fill="#4C79CB" transform="translate(33,83)"/>
<path d="M0 0 C2.97 0.495 2.97 0.495 6 1 C6.33 2.32 6.66 3.64 7 5 C3.34683329 3.75023244 2.21934164 3.32901247 0 0 Z " fill="#47494B" transform="translate(71,109)"/>
<path d="M0 0 C-1 3 -1 3 -3.3125 4.25 C-6.16597407 5.04631835 -7.24802325 4.8214856 -10 4 C-8.71086513 3.32845067 -7.41859796 2.66291141 -6.125 2 C-5.40570313 1.62875 -4.68640625 1.2575 -3.9453125 0.875 C-2 0 -2 0 0 0 Z " fill="#405783" transform="translate(94,201)"/>
<path d="M0 0 C0.99 0.33 1.98 0.66 3 1 C3 3.64 3 6.28 3 9 C2.34 8.67 1.68 8.34 1 8 C0.40644386 5.35139573 0.25790731 2.70802678 0 0 Z " fill="#3359AA" transform="translate(165,164)"/>
<path d="M0 0 C0.6875 1.8125 0.6875 1.8125 1 4 C-0.3125 5.75 -0.3125 5.75 -2 7 C-2.66 7 -3.32 7 -4 7 C-3.67 5.68 -3.34 4.36 -3 3 C-2.34 3 -1.68 3 -1 3 C-0.67 2.01 -0.34 1.02 0 0 Z " fill="#5583D7" transform="translate(157,193)"/>
<path d="M0 0 C2.64 0.66 5.28 1.32 8 2 C7.67 2.66 7.34 3.32 7 4 C4.03 3.505 4.03 3.505 1 3 C0.67 2.01 0.34 1.02 0 0 Z " fill="#365394" transform="translate(54,85)"/>
</svg>
